<svg xmlns="http://www.w3.org/2000/svg" version="1.1" xmlns:xlink="http://www.w3.org/1999/xlink" xmlns:svgjs="http://svgjs.com/svgjs" width="100" height="100" viewBox="0 0 100 100"><g class="wrap" transform="matrix(1,0,0,1,0,0)"><defs class="background">
			<g id="background">
<path fill="url(#background-gradient)" stroke="none" d=" M 97.45 2.65 Q 94.8 0 91.15 0 L 8.85 0 Q 5.2 0 2.65 2.65 0 5.2 0 8.85 L 0 91.15 Q 0 94.8 2.65 97.45 5.2 100 8.85 100 L 91.15 100 Q 94.8 100 97.45 97.45 100 94.8 100 91.15 L 100 8.85 Q 100 5.2 97.45 2.65 Z"></path>
</g><g id="middle-1">
<path fill="#000000" fill-opacity="0.10196078431372549" stroke="none" d=" M 97.45 2.65 Q 94.85 0 91.15 0 L 8.85 0 Q 4.95 0 2.65 2.55 L 97.15 97.6 Q 100 95.05 100 91.15 L 100 8.85 Q 100 5.2 97.45 2.65 Z"></path>
</g><mask id="mask">
<path fill="#FFFFFF" stroke="none" d=" M 97.45 2.65 Q 94.8 0 91.15 0 L 8.85 0 Q 5.2 0 2.65 2.65 0 5.2 0 8.85 L 0 91.15 Q 0 94.8 2.65 97.45 5.2 100 8.85 100 L 91.15 100 Q 94.8 100 97.45 97.45 100 94.8 100 91.15 L 100 8.85 Q 100 5.2 97.45 2.65 Z"></path>
</mask>
			
	<linearGradient id="background-gradient" x1="0" y1="0" y2="1" x2="0" gradientTransform="rotate(123 0.5 0.5)">
		<stop stop-color="#17ccf3" offset="0%"></stop>
		<stop stop-color="#0b9cff" offset="100%"></stop>
	</linearGradient>

			
			
			
			
		<linearGradient class="shapgradient" gradientTransform="rotate(0 0.5 0.5)" id="SvgjsLinearGradient1000"><stop stop-color="#ffffff" offset="0"></stop><stop stop-color="#ffffff" offset="1"></stop></linearGradient></defs><use xlink:href="#background" fill="url(#background-gradient)" class="background"></use><use xlink:href="#middle-1" class="background"></use><g class="geditable"><g mask="url(&quot;#mask&quot;)" fill="url(#SvgjsLinearGradient1000)" class="editable" transform="matrix(1.01,0,0,1.01,1.5000000572204613,-0.5000000953674331)"><path d="M348.33862918729346 -144.9876928116342A23.06 23.06 0 0 0 327.45862918729347 -185.1576928116342C326.6286291872935 -184.7276928116342 325.7486291872935 -184.25769281163417 324.8286291872935 -183.75769281163417C309.5786291872935 -175.3576928116342 206.4986291872935 -103.13769281163417 218.13862918729347 -94.98769281163419S300.1786291872935 -118.5976928116342 348.33862918729346 -144.9876928116342ZM348.33862918729346 72.18230718836577C300.1786291872935 45.80230718836577 229.69862918729348 14.082307188365746 218.13862918729347 22.18230718836577S309.5586291872935 102.53230718836573 324.8286291872935 110.92230718836578C325.7486291872935 111.43230718836577 326.6286291872935 111.92230718836578 327.45862918729347 112.3323071883658A23.07 23.07 0 0 0 348.33862918729346 72.18230718836583ZM390.76862918729347 -60.157692811634206C389.8186291872935 -60.157692811634206 388.8186291872935 -60.21769281163421 387.76862918729347 -60.21769281163421C370.3686291872935 -60.21769281163421 245.24862918729343 -46.45769281163422 251.52862918729346 -33.70769281163422S334.8286291872935 -14.967692811634208 389.73862918729344 -14.947692811634226A23 23 0 0 0 390.73862918729344 -60.157692811634206ZM-42.441370812706516 -200.50769281163417A24.88 24.88 0 0 1 3.698629187293484 -218.9076928116342L84.69862918729348 -13.847692811634204H85.90862918729349L162.90862918729349 -217.37769281163418A23.52 23.52 0 0 1 207.3586291872935 -202.1076928116342L97.75862918729348 71.28230718836579C79.2086291872935 118.50230718836582 60.638629187293496 150.8423071883658 4.46862918729348 150.8423071883658A139.67 139.67 0 0 1 -19.341370812706522 148.8923071883658A21.31 21.31 0 0 1 -12.441370812706523 107.12230718836582C-11.781370812706527 107.18230718836583 -1.5313708127065198 107.78230718836585 1.4186291872934689 107.78230718836585C31.888629187293468 107.78230718836585 45.15862918729348 88.84230718836585 59.48862918729346 48.37230718836588Z " transform="matrix(0.13252836301641155,0,0,0.13252836301641158,25.792590265766254,55.45901400454082)"></path></g></g></g></svg>